<svg xmlns="http://www.w3.org/2000/svg" viewBox="0 0 16 16" width="16" height="16">
  <rect x="2" y="7" width="12" height="8" rx="1" fill="#e74c3c" stroke="#222" stroke-width="1"/>
  <rect x="6.5" y="7" width="3" height="8" fill="#f9e04b"/>
  <rect x="2" y="7" width="12" height="3" rx="1" fill="#c0392b" stroke="#222" stroke-width="1"/>
  <rect x="6.5" y="7" width="3" height="3" fill="#f1c40f"/>
  <path d="M8 7 C8 5 10 3 10 3 C11 2 12 3 11 4 C10 5 8 7 8 7Z" fill="#f9e04b" stroke="#222" stroke-width="0.5"/>
  <path d="M8 7 C8 5 6 3 6 3 C5 2 4 3 5 4 C6 5 8 7 8 7Z" fill="#f9e04b" stroke="#222" stroke-width="0.5"/>
</svg>
